<svg xmlns="http://www.w3.org/2000/svg" xmlns:cc="http://web.resource.org/cc/" xmlns:svg="http://www.w3.org/2000/svg" xmlns:xlink="http://www.w3.org/1999/xlink" id="svg2" width="744.094" height="1052.362"><metadata id="metadata7"/><g id="layer1"><rect style="opacity:1;fill:none;fill-opacity:1;fill-rule:evenodd;stroke:#000;stroke-width:1.006796;stroke-linejoin:miter;stroke-miterlimit:4;stroke-dasharray:none;stroke-opacity:1" id="rect1306" width="159.493" height="159.497" x="227.179" y="-24.57" transform="matrix(0.707107,0.707107,-0.707107,0.707107,0.000000,0.000000)"/><rect id="rect2059" width="100" height="100" x="134.286" y="272.362" style="opacity:1;fill:none;fill-opacity:1;fill-rule:evenodd;stroke:#000;stroke-opacity:1;stroke-width:0;stroke-miterlimit:4;stroke-dasharray:none"/><text xml:space="preserve" style="font-size:12px;font-style:normal;font-weight:400;fill:#000;fill-opacity:1;stroke:none;stroke-width:1px;stroke-linecap:butt;stroke-linejoin:miter;stroke-opacity:1;font-family:Bitstream Vera Sans" id="text6598" x="177.843" y="159.254"><tspan id="tspan6600" x="177.843" y="159.254" style="font-family:Bitstream Vera Sans;font-weight:400;font-style:normal;font-stretch:normal;font-variant:normal;font-size:12;text-anchor:middle;text-align:center;writing-mode:lr;line-height:125%">N</tspan></text><path id="use6604" d="M 213.86573 240.06183 A 4.8679605 4.8679605 0 1 1 204.12981,240.06183 A 4.8679605 4.8679605 0 1 1 213.86573 240.06183 z" transform="translate(-192.0645,-106.5709)" style="opacity:1;fill:#9fb276;fill-opacity:1;fill-rule:evenodd;stroke:#000;stroke-width:.29899999;stroke-miterlimit:4;stroke-dasharray:none;stroke-opacity:1"/><text xml:space="preserve" style="font-size:12px;font-style:normal;font-weight:400;line-height:125%;fill:#000;fill-opacity:1;stroke:none;stroke-width:1px;stroke-linecap:butt;stroke-linejoin:miter;stroke-opacity:1;font-family:Bitstream Vera Sans" id="text6606" x="27.215" y="135.698"><tspan id="tspan6608" x="27.215" y="135.698" style="font-size:8px;font-style:normal;font-variant:normal;font-weight:400;font-stretch:normal;text-align:start;line-height:125%;writing-mode:lr-tb;text-anchor:start;font-family:Bitstream Vera Sans">Pylon Control Point (PCP)</tspan></text><g id="g6780"><path id="path6610" d="M 239.82819 189.43504 A 2.2717149 2.2717149 0 1 1 235.28476,189.43504 A 2.2717149 2.2717149 0 1 1 239.82819 189.43504 z" transform="translate(-16.64392,10.04300)" style="opacity:1;fill:#0ff;fill-opacity:1;fill-rule:evenodd;stroke:#000;stroke-width:.125;stroke-linejoin:miter;stroke-miterlimit:4;stroke-dasharray:none;stroke-opacity:1"/><path id="path6612" d="M 239.82819 189.43504 A 2.2717149 2.2717149 0 1 1 235.28476,189.43504 A 2.2717149 2.2717149 0 1 1 239.82819 189.43504 z" transform="translate(-16.64392,-3.625430)" style="opacity:1;fill:#00f;fill-opacity:1;fill-rule:evenodd;stroke:#000;stroke-width:.125;stroke-linejoin:miter;stroke-miterlimit:4;stroke-dasharray:none;stroke-opacity:1"/><path id="path6614" d="M 239.82819 189.43504 A 2.2717149 2.2717149 0 1 1 235.28476,189.43504 A 2.2717149 2.2717149 0 1 1 239.82819 189.43504 z" transform="translate(-2.975490,-3.625430)" style="opacity:1;fill:#00f;fill-opacity:1;fill-rule:evenodd;stroke:#000;stroke-width:.125;stroke-linejoin:miter;stroke-miterlimit:4;stroke-dasharray:none;stroke-opacity:1"/><path id="path6616" d="M 239.82819 189.43504 A 2.2717149 2.2717149 0 1 1 235.28476,189.43504 A 2.2717149 2.2717149 0 1 1 239.82819 189.43504 z" transform="translate(10.69294,-3.625430)" style="opacity:1;fill:red;fill-opacity:1;fill-rule:evenodd;stroke:#000;stroke-width:.125;stroke-linejoin:miter;stroke-miterlimit:4;stroke-dasharray:none;stroke-opacity:1"/><path id="path6620" d="M 239.82819 189.43504 A 2.2717149 2.2717149 0 1 1 235.28476,189.43504 A 2.2717149 2.2717149 0 1 1 239.82819 189.43504 z" transform="translate(10.69294,10.04300)" style="opacity:1;fill:#00f;fill-opacity:1;fill-rule:evenodd;stroke:#000;stroke-width:.125;stroke-linejoin:miter;stroke-miterlimit:4;stroke-dasharray:none;stroke-opacity:1"/><path id="path6622" d="M 239.82819 189.43504 A 2.2717149 2.2717149 0 1 1 235.28476,189.43504 A 2.2717149 2.2717149 0 1 1 239.82819 189.43504 z" transform="translate(10.69294,23.71143)" style="opacity:1;fill:#0ff;fill-opacity:1;fill-rule:evenodd;stroke:#000;stroke-width:.125;stroke-linejoin:miter;stroke-miterlimit:4;stroke-dasharray:none;stroke-opacity:1"/><path id="path6624" d="M 239.82819 189.43504 A 2.2717149 2.2717149 0 1 1 235.28476,189.43504 A 2.2717149 2.2717149 0 1 1 239.82819 189.43504 z" transform="translate(-2.975490,23.71143)" style="opacity:1;fill:#0ff;fill-opacity:1;fill-rule:evenodd;stroke:#000;stroke-width:.125;stroke-linejoin:miter;stroke-miterlimit:4;stroke-dasharray:none;stroke-opacity:1"/><path id="path6626" d="M 239.82819 189.43504 A 2.2717149 2.2717149 0 1 1 235.28476,189.43504 A 2.2717149 2.2717149 0 1 1 239.82819 189.43504 z" transform="translate(-16.64392,23.71143)" style="opacity:1;fill:#ff0;fill-opacity:1;fill-rule:evenodd;stroke:#000;stroke-width:.125;stroke-linejoin:miter;stroke-miterlimit:4;stroke-dasharray:none;stroke-opacity:1"/><path style="opacity:1;fill:#9fb276;fill-opacity:1;fill-rule:evenodd;stroke:#000;stroke-width:.29899999;stroke-miterlimit:4;stroke-dasharray:none;stroke-opacity:1" id="path6732" d="M 213.86573 240.06183 A 4.8679605 4.8679605 0 1 1 204.12981,240.06183 A 4.8679605 4.8679605 0 1 1 213.86573 240.06183 z" transform="matrix(0.707107,-0.707107,0.707107,0.707107,-82.95220,177.5124)"/></g><use id="use6742" width="744.094" height="1052.362" x="0" y="0" transform="translate(-222.0702,-28.15283)" xlink:href="#path6616"/><path id="path6744" d="M 239.82819 189.43504 A 2.2717149 2.2717149 0 1 1 235.28476,189.43504 A 2.2717149 2.2717149 0 1 1 239.82819 189.43504 z" transform="translate(-211.3773,-22.11155)" style="opacity:1;fill:#00f;fill-opacity:1;fill-rule:evenodd;stroke:#000;stroke-width:.125;stroke-linejoin:miter;stroke-miterlimit:4;stroke-dasharray:none;stroke-opacity:1"/><path id="path6746" d="M 239.82819 189.43504 A 2.2717149 2.2717149 0 1 1 235.28476,189.43504 A 2.2717149 2.2717149 0 1 1 239.82819 189.43504 z" transform="translate(-211.3773,-12.44495)" style="opacity:1;fill:#0ff;fill-opacity:1;fill-rule:evenodd;stroke:#000;stroke-width:.125;stroke-linejoin:miter;stroke-miterlimit:4;stroke-dasharray:none;stroke-opacity:1"/><path id="path6748" d="M 239.82819 189.43504 A 2.2717149 2.2717149 0 1 1 235.28476,189.43504 A 2.2717149 2.2717149 0 1 1 239.82819 189.43504 z" transform="translate(-211.3773,-2.778260)" style="opacity:1;fill:#ff0;fill-opacity:1;fill-rule:evenodd;stroke:#000;stroke-width:.125;stroke-linejoin:miter;stroke-miterlimit:4;stroke-dasharray:none;stroke-opacity:1"/><text xml:space="preserve" style="font-size:12px;font-style:normal;font-weight:400;line-height:125%;fill:#000;fill-opacity:1;stroke:none;stroke-width:1px;stroke-linecap:butt;stroke-linejoin:miter;stroke-opacity:1;font-family:Bitstream Vera Sans" id="text6750" x="32.279" y="159.587"><tspan id="tspan6752" x="32.279" y="159.587" style="font-size:6px;font-style:normal;font-variant:normal;font-weight:400;font-stretch:normal;text-align:start;line-height:125%;writing-mode:lr-tb;text-anchor:start;font-family:Bitstream Vera Sans">not allowed, not owned</tspan></text><text xml:space="preserve" style="font-size:12px;font-style:normal;font-weight:400;line-height:125%;fill:#000;fill-opacity:1;stroke:none;stroke-width:1px;stroke-linecap:butt;stroke-linejoin:miter;stroke-opacity:1;font-family:Bitstream Vera Sans" id="text6754" x="32.279" y="188.587"><tspan id="tspan6756" x="32.279" y="188.587" style="font-size:6px;font-style:normal;font-variant:normal;font-weight:400;font-stretch:normal;text-align:start;line-height:125%;writing-mode:lr-tb;text-anchor:start;font-family:Bitstream Vera Sans">not allowed, owned</tspan></text><text xml:space="preserve" style="font-size:12px;font-style:normal;font-weight:400;line-height:125%;fill:#000;fill-opacity:1;stroke:none;stroke-width:1px;stroke-linecap:butt;stroke-linejoin:miter;stroke-opacity:1;font-family:Bitstream Vera Sans" id="text6758" x="32.279" y="178.921"><tspan id="tspan6760" x="32.279" y="178.921" style="font-size:6px;font-style:normal;font-variant:normal;font-weight:400;font-stretch:normal;text-align:start;line-height:125%;writing-mode:lr-tb;text-anchor:start;font-family:Bitstream Vera Sans">allowed, owned</tspan></text><text xml:space="preserve" style="font-size:12px;font-style:normal;font-weight:400;line-height:125%;fill:#000;fill-opacity:1;stroke:none;stroke-width:1px;stroke-linecap:butt;stroke-linejoin:miter;stroke-opacity:1;font-family:Bitstream Vera Sans" id="text6762" x="32.279" y="169.254"><tspan id="tspan6764" x="32.279" y="169.254" style="font-size:6px;font-style:normal;font-variant:normal;font-weight:400;font-stretch:normal;text-align:start;line-height:125%;writing-mode:lr-tb;text-anchor:start;font-family:Bitstream Vera Sans">allowed, not owned</tspan></text><text xml:space="preserve" style="font-size:12px;font-style:normal;font-weight:400;line-height:125%;fill:#000;fill-opacity:1;stroke:none;stroke-width:1px;stroke-linecap:butt;stroke-linejoin:miter;stroke-opacity:1;font-family:Bitstream Vera Sans" id="text6766" x="27.215" y="149.621"><tspan id="tspan6768" x="27.215" y="149.621" style="font-size:8px;font-style:normal;font-variant:normal;font-weight:400;font-stretch:normal;text-align:start;line-height:125%;writing-mode:lr-tb;text-anchor:start;font-family:Bitstream Vera Sans">Pylon Position Point (PPP)</tspan></text><use id="use6791" width="744.094" height="1052.362" x="0" y="0" transform="matrix(-1.720846e-15,1.000000,-1.000000,-1.720846e-15,433.4807,78.77855)" xlink:href="#g6780"/><g id="g6793" transform="matrix(1.776357e-15,-1.000000,1.000000,1.776357e-15,-78.04526,434.0590)"><path style="opacity:1;fill:#0ff;fill-opacity:1;fill-rule:evenodd;stroke:#000;stroke-width:.125;stroke-linejoin:miter;stroke-miterlimit:4;stroke-dasharray:none;stroke-opacity:1" id="path6795" d="M 239.82819 189.43504 A 2.2717149 2.2717149 0 1 1 235.28476,189.43504 A 2.2717149 2.2717149 0 1 1 239.82819 189.43504 z" transform="translate(-16.64392,10.04300)"/><path style="opacity:1;fill:#00f;fill-opacity:1;fill-rule:evenodd;stroke:#000;stroke-width:.125;stroke-linejoin:miter;stroke-miterlimit:4;stroke-dasharray:none;stroke-opacity:1" id="path6797" d="M 239.82819 189.43504 A 2.2717149 2.2717149 0 1 1 235.28476,189.43504 A 2.2717149 2.2717149 0 1 1 239.82819 189.43504 z" transform="translate(-16.64392,-3.625430)"/><path style="opacity:1;fill:#00f;fill-opacity:1;fill-rule:evenodd;stroke:#000;stroke-width:.125;stroke-linejoin:miter;stroke-miterlimit:4;stroke-dasharray:none;stroke-opacity:1" id="path6799" d="M 239.82819 189.43504 A 2.2717149 2.2717149 0 1 1 235.28476,189.43504 A 2.2717149 2.2717149 0 1 1 239.82819 189.43504 z" transform="translate(-2.975490,-3.625430)"/><path style="opacity:1;fill:red;fill-opacity:1;fill-rule:evenodd;stroke:#000;stroke-width:.125;stroke-linejoin:miter;stroke-miterlimit:4;stroke-dasharray:none;stroke-opacity:1" id="path6801" d="M 239.82819 189.43504 A 2.2717149 2.2717149 0 1 1 235.28476,189.43504 A 2.2717149 2.2717149 0 1 1 239.82819 189.43504 z" transform="translate(10.69294,-3.625430)"/><path style="opacity:1;fill:#00f;fill-opacity:1;fill-rule:evenodd;stroke:#000;stroke-width:.125;stroke-linejoin:miter;stroke-miterlimit:4;stroke-dasharray:none;stroke-opacity:1" id="path6803" d="M 239.82819 189.43504 A 2.2717149 2.2717149 0 1 1 235.28476,189.43504 A 2.2717149 2.2717149 0 1 1 239.82819 189.43504 z" transform="translate(10.69294,10.04300)"/><path style="opacity:1;fill:#0ff;fill-opacity:1;fill-rule:evenodd;stroke:#000;stroke-width:.125;stroke-linejoin:miter;stroke-miterlimit:4;stroke-dasharray:none;stroke-opacity:1" id="path6805" d="M 239.82819 189.43504 A 2.2717149 2.2717149 0 1 1 235.28476,189.43504 A 2.2717149 2.2717149 0 1 1 239.82819 189.43504 z" transform="translate(10.69294,23.71143)"/><path style="opacity:1;fill:#0ff;fill-opacity:1;fill-rule:evenodd;stroke:#000;stroke-width:.125;stroke-linejoin:miter;stroke-miterlimit:4;stroke-dasharray:none;stroke-opacity:1" id="path6807" d="M 239.82819 189.43504 A 2.2717149 2.2717149 0 1 1 235.28476,189.43504 A 2.2717149 2.2717149 0 1 1 239.82819 189.43504 z" transform="translate(-2.975490,23.71143)"/><path style="opacity:1;fill:#ff0;fill-opacity:1;fill-rule:evenodd;stroke:#000;stroke-width:.125;stroke-linejoin:miter;stroke-miterlimit:4;stroke-dasharray:none;stroke-opacity:1" id="path6809" d="M 239.82819 189.43504 A 2.2717149 2.2717149 0 1 1 235.28476,189.43504 A 2.2717149 2.2717149 0 1 1 239.82819 189.43504 z" transform="translate(-16.64392,23.71143)"/><path id="path6811" d="M 213.86573 240.06183 A 4.8679605 4.8679605 0 1 1 204.12981,240.06183 A 4.8679605 4.8679605 0 1 1 213.86573 240.06183 z" transform="matrix(0.707107,-0.707107,0.707107,0.707107,-82.95220,177.5124)" style="opacity:1;fill:#9fb276;fill-opacity:1;fill-rule:evenodd;stroke:#000;stroke-width:.29899999;stroke-miterlimit:4;stroke-dasharray:none;stroke-opacity:1"/></g><g id="g6813" transform="matrix(-1.000000,0.000000,0.000000,-1.000000,356.0752,512.3398)"><path style="opacity:1;fill:#0ff;fill-opacity:1;fill-rule:evenodd;stroke:#000;stroke-width:.125;stroke-linejoin:miter;stroke-miterlimit:4;stroke-dasharray:none;stroke-opacity:1" id="path6815" d="M 239.82819 189.43504 A 2.2717149 2.2717149 0 1 1 235.28476,189.43504 A 2.2717149 2.2717149 0 1 1 239.82819 189.43504 z" transform="translate(-16.64392,10.04300)"/><path style="opacity:1;fill:#00f;fill-opacity:1;fill-rule:evenodd;stroke:#000;stroke-width:.125;stroke-linejoin:miter;stroke-miterlimit:4;stroke-dasharray:none;stroke-opacity:1" id="path6817" d="M 239.82819 189.43504 A 2.2717149 2.2717149 0 1 1 235.28476,189.43504 A 2.2717149 2.2717149 0 1 1 239.82819 189.43504 z" transform="translate(-16.64392,-3.625430)"/><path style="opacity:1;fill:#00f;fill-opacity:1;fill-rule:evenodd;stroke:#000;stroke-width:.125;stroke-linejoin:miter;stroke-miterlimit:4;stroke-dasharray:none;stroke-opacity:1" id="path6819" d="M 239.82819 189.43504 A 2.2717149 2.2717149 0 1 1 235.28476,189.43504 A 2.2717149 2.2717149 0 1 1 239.82819 189.43504 z" transform="translate(-2.975490,-3.625430)"/><path style="opacity:1;fill:red;fill-opacity:1;fill-rule:evenodd;stroke:#000;stroke-width:.125;stroke-linejoin:miter;stroke-miterlimit:4;stroke-dasharray:none;stroke-opacity:1" id="path6821" d="M 239.82819 189.43504 A 2.2717149 2.2717149 0 1 1 235.28476,189.43504 A 2.2717149 2.2717149 0 1 1 239.82819 189.43504 z" transform="translate(10.69294,-3.625430)"/><path style="opacity:1;fill:#00f;fill-opacity:1;fill-rule:evenodd;stroke:#000;stroke-width:.125;stroke-linejoin:miter;stroke-miterlimit:4;stroke-dasharray:none;stroke-opacity:1" id="path6823" d="M 239.82819 189.43504 A 2.2717149 2.2717149 0 1 1 235.28476,189.43504 A 2.2717149 2.2717149 0 1 1 239.82819 189.43504 z" transform="translate(10.69294,10.04300)"/><path style="opacity:1;fill:#0ff;fill-opacity:1;fill-rule:evenodd;stroke:#000;stroke-width:.125;stroke-linejoin:miter;stroke-miterlimit:4;stroke-dasharray:none;stroke-opacity:1" id="path6825" d="M 239.82819 189.43504 A 2.2717149 2.2717149 0 1 1 235.28476,189.43504 A 2.2717149 2.2717149 0 1 1 239.82819 189.43504 z" transform="translate(10.69294,23.71143)"/><path style="opacity:1;fill:#0ff;fill-opacity:1;fill-rule:evenodd;stroke:#000;stroke-width:.125;stroke-linejoin:miter;stroke-miterlimit:4;stroke-dasharray:none;stroke-opacity:1" id="path6827" d="M 239.82819 189.43504 A 2.2717149 2.2717149 0 1 1 235.28476,189.43504 A 2.2717149 2.2717149 0 1 1 239.82819 189.43504 z" transform="translate(-2.975490,23.71143)"/><path style="opacity:1;fill:#ff0;fill-opacity:1;fill-rule:evenodd;stroke:#000;stroke-width:.125;stroke-linejoin:miter;stroke-miterlimit:4;stroke-dasharray:none;stroke-opacity:1" id="path6829" d="M 239.82819 189.43504 A 2.2717149 2.2717149 0 1 1 235.28476,189.43504 A 2.2717149 2.2717149 0 1 1 239.82819 189.43504 z" transform="translate(-16.64392,23.71143)"/><path id="path6831" d="M 213.86573 240.06183 A 4.8679605 4.8679605 0 1 1 204.12981,240.06183 A 4.8679605 4.8679605 0 1 1 213.86573 240.06183 z" transform="matrix(0.707107,-0.707107,0.707107,0.707107,-82.95220,177.5124)" style="opacity:1;fill:#9fb276;fill-opacity:1;fill-rule:evenodd;stroke:#000;stroke-width:.29899999;stroke-miterlimit:4;stroke-dasharray:none;stroke-opacity:1"/></g><use id="use6841" width="744.094" height="1052.362" x="0" y="0" transform="translate(-225.5836,232.1805)" xlink:href="#path6616"/><path id="path6843" d="M 239.82819 189.43504 A 2.2717149 2.2717149 0 1 1 235.28476,189.43504 A 2.2717149 2.2717149 0 1 1 239.82819 189.43504 z" transform="translate(-214.8907,238.2218)" style="opacity:1;fill:#00f;fill-opacity:1;fill-rule:evenodd;stroke:#000;stroke-width:.125;stroke-linejoin:miter;stroke-miterlimit:4;stroke-dasharray:none;stroke-opacity:1"/><path id="path6845" d="M 239.82819 189.43504 A 2.2717149 2.2717149 0 1 1 235.28476,189.43504 A 2.2717149 2.2717149 0 1 1 239.82819 189.43504 z" transform="translate(-214.8907,247.8884)" style="opacity:1;fill:#0ff;fill-opacity:1;fill-rule:evenodd;stroke:#000;stroke-width:.125;stroke-linejoin:miter;stroke-miterlimit:4;stroke-dasharray:none;stroke-opacity:1"/><path id="path6847" d="M 239.82819 189.43504 A 2.2717149 2.2717149 0 1 1 235.28476,189.43504 A 2.2717149 2.2717149 0 1 1 239.82819 189.43504 z" transform="translate(-214.8907,257.5551)" style="opacity:1;fill:#ff0;fill-opacity:1;fill-rule:evenodd;stroke:#000;stroke-width:.125;stroke-linejoin:miter;stroke-miterlimit:4;stroke-dasharray:none;stroke-opacity:1"/><text xml:space="preserve" style="font-size:12px;font-style:normal;font-weight:400;line-height:125%;fill:#000;fill-opacity:1;stroke:none;stroke-width:1px;stroke-linecap:butt;stroke-linejoin:miter;stroke-opacity:1;font-family:Bitstream Vera Sans" id="text6849" x="28.766" y="419.921"><tspan id="tspan6851" x="28.766" y="419.921" style="font-size:6px;font-style:normal;font-variant:normal;font-weight:400;font-stretch:normal;text-align:start;line-height:125%;writing-mode:lr-tb;text-anchor:start;font-family:Bitstream Vera Sans">not allowed, but preferred (end of line marker)</tspan></text><text xml:space="preserve" style="font-size:12px;font-style:normal;font-weight:400;line-height:125%;fill:#000;fill-opacity:1;stroke:none;stroke-width:1px;stroke-linecap:butt;stroke-linejoin:miter;stroke-opacity:1;font-family:Bitstream Vera Sans" id="text6853" x="28.766" y="448.921"><tspan id="tspan6855" x="28.766" y="448.921" style="font-size:6px;font-style:normal;font-variant:normal;font-weight:400;font-stretch:normal;text-align:start;line-height:125%;writing-mode:lr-tb;text-anchor:start;font-family:Bitstream Vera Sans">not allowed</tspan></text><text xml:space="preserve" style="font-size:12px;font-style:normal;font-weight:400;line-height:125%;fill:#000;fill-opacity:1;stroke:none;stroke-width:1px;stroke-linecap:butt;stroke-linejoin:miter;stroke-opacity:1;font-family:Bitstream Vera Sans" id="text6857" x="28.766" y="439.254"><tspan id="tspan6859" x="28.766" y="439.254" style="font-size:6px;font-style:normal;font-variant:normal;font-weight:400;font-stretch:normal;text-align:start;line-height:125%;writing-mode:lr-tb;text-anchor:start;font-family:Bitstream Vera Sans">preferred, allowed</tspan></text><text xml:space="preserve" style="font-size:12px;font-style:normal;font-weight:400;line-height:125%;fill:#000;fill-opacity:1;stroke:none;stroke-width:1px;stroke-linecap:butt;stroke-linejoin:miter;stroke-opacity:1;font-family:Bitstream Vera Sans" id="text6861" x="28.766" y="429.587"><tspan x="28.766" y="429.587" style="font-size:6px;font-style:normal;font-variant:normal;font-weight:400;font-stretch:normal;text-align:start;line-height:125%;writing-mode:lr-tb;text-anchor:start;font-family:Bitstream Vera Sans" id="tspan6933">allowed</tspan></text><text xml:space="preserve" style="font-size:12px;font-style:normal;font-weight:400;line-height:125%;fill:#000;fill-opacity:1;stroke:none;stroke-width:1px;stroke-linecap:butt;stroke-linejoin:miter;stroke-opacity:1;font-family:Bitstream Vera Sans" id="text6865" x="23.701" y="409.954"><tspan id="tspan6867" x="23.701" y="409.954" style="font-size:8px;font-style:normal;font-variant:normal;font-weight:400;font-stretch:normal;text-align:start;line-height:125%;writing-mode:lr-tb;text-anchor:start;font-family:Bitstream Vera Sans">Pylon Position Point (PPP)</tspan></text><g id="g6989"><path id="path6871" d="M 239.82819 189.43504 A 2.2717149 2.2717149 0 1 1 235.28476,189.43504 A 2.2717149 2.2717149 0 1 1 239.82819 189.43504 z" transform="translate(-103.1355,254.9297)" style="opacity:1;fill:#00f;fill-opacity:1;fill-rule:evenodd;stroke:#000;stroke-width:.125;stroke-linejoin:miter;stroke-miterlimit:4;stroke-dasharray:none;stroke-opacity:1"/><path id="path6873" d="M 239.82819 189.43504 A 2.2717149 2.2717149 0 1 1 235.28476,189.43504 A 2.2717149 2.2717149 0 1 1 239.82819 189.43504 z" transform="translate(-103.1355,241.2613)" style="opacity:1;fill:#0ff;fill-opacity:1;fill-rule:evenodd;stroke:#000;stroke-width:.125;stroke-linejoin:miter;stroke-miterlimit:4;stroke-dasharray:none;stroke-opacity:1"/><path id="path6875" d="M 239.82819 189.43504 A 2.2717149 2.2717149 0 1 1 235.28476,189.43504 A 2.2717149 2.2717149 0 1 1 239.82819 189.43504 z" transform="translate(-89.46705,241.2613)" style="opacity:1;fill:#00f;fill-opacity:1;fill-rule:evenodd;stroke:#000;stroke-width:.125;stroke-linejoin:miter;stroke-miterlimit:4;stroke-dasharray:none;stroke-opacity:1"/><path id="path6877" d="M 239.82819 189.43504 A 2.2717149 2.2717149 0 1 1 235.28476,189.43504 A 2.2717149 2.2717149 0 1 1 239.82819 189.43504 z" transform="translate(-75.79862,241.2613)" style="opacity:1;fill:red;fill-opacity:1;fill-rule:evenodd;stroke:#000;stroke-width:.125;stroke-linejoin:miter;stroke-miterlimit:4;stroke-dasharray:none;stroke-opacity:1"/><path id="path6879" d="M 239.82819 189.43504 A 2.2717149 2.2717149 0 1 1 235.28476,189.43504 A 2.2717149 2.2717149 0 1 1 239.82819 189.43504 z" transform="translate(-75.79862,254.9297)" style="opacity:1;fill:#00f;fill-opacity:1;fill-rule:evenodd;stroke:#000;stroke-width:.125;stroke-linejoin:miter;stroke-miterlimit:4;stroke-dasharray:none;stroke-opacity:1"/><path id="path6881" d="M 239.82819 189.43504 A 2.2717149 2.2717149 0 1 1 235.28476,189.43504 A 2.2717149 2.2717149 0 1 1 239.82819 189.43504 z" transform="translate(-75.79862,268.5982)" style="opacity:1;fill:#0ff;fill-opacity:1;fill-rule:evenodd;stroke:#000;stroke-width:.125;stroke-linejoin:miter;stroke-miterlimit:4;stroke-dasharray:none;stroke-opacity:1"/><path id="path6883" d="M 239.82819 189.43504 A 2.2717149 2.2717149 0 1 1 235.28476,189.43504 A 2.2717149 2.2717149 0 1 1 239.82819 189.43504 z" transform="translate(-89.46705,268.5982)" style="opacity:1;fill:#00f;fill-opacity:1;fill-rule:evenodd;stroke:#000;stroke-width:.125;stroke-linejoin:miter;stroke-miterlimit:4;stroke-dasharray:none;stroke-opacity:1"/><path id="path6885" d="M 239.82819 189.43504 A 2.2717149 2.2717149 0 1 1 235.28476,189.43504 A 2.2717149 2.2717149 0 1 1 239.82819 189.43504 z" transform="translate(-103.1355,268.5982)" style="opacity:1;fill:#ff0;fill-opacity:1;fill-rule:evenodd;stroke:#000;stroke-width:.125;stroke-linejoin:miter;stroke-miterlimit:4;stroke-dasharray:none;stroke-opacity:1"/><path style="opacity:1;fill:#00f;fill-opacity:1;fill-rule:evenodd;stroke:#000;stroke-width:.125;stroke-linejoin:miter;stroke-miterlimit:4;stroke-dasharray:none;stroke-opacity:1" id="path6891" d="M 239.82819 189.43504 A 2.2717149 2.2717149 0 1 1 235.28476,189.43504 A 2.2717149 2.2717149 0 1 1 239.82819 189.43504 z" transform="matrix(-1.000000,0.000000,0.000000,-1.000000,286.2275,747.1836)"/><path style="opacity:1;fill:#0ff;fill-opacity:1;fill-rule:evenodd;stroke:#000;stroke-width:.125;stroke-linejoin:miter;stroke-miterlimit:4;stroke-dasharray:none;stroke-opacity:1" id="path6893" d="M 239.82819 189.43504 A 2.2717149 2.2717149 0 1 1 235.28476,189.43504 A 2.2717149 2.2717149 0 1 1 239.82819 189.43504 z" transform="matrix(-1.000000,0.000000,0.000000,-1.000000,286.2275,760.8520)"/><path style="opacity:1;fill:#00f;fill-opacity:1;fill-rule:evenodd;stroke:#000;stroke-width:.125;stroke-linejoin:miter;stroke-miterlimit:4;stroke-dasharray:none;stroke-opacity:1" id="path6895" d="M 239.82819 189.43504 A 2.2717149 2.2717149 0 1 1 235.28476,189.43504 A 2.2717149 2.2717149 0 1 1 239.82819 189.43504 z" transform="matrix(-1.000000,0.000000,0.000000,-1.000000,272.5591,760.8520)"/><path style="opacity:1;fill:red;fill-opacity:1;fill-rule:evenodd;stroke:#000;stroke-width:.125;stroke-linejoin:miter;stroke-miterlimit:4;stroke-dasharray:none;stroke-opacity:1" id="path6897" d="M 239.82819 189.43504 A 2.2717149 2.2717149 0 1 1 235.28476,189.43504 A 2.2717149 2.2717149 0 1 1 239.82819 189.43504 z" transform="matrix(-1.000000,0.000000,0.000000,-1.000000,258.8907,760.8520)"/><path style="opacity:1;fill:#00f;fill-opacity:1;fill-rule:evenodd;stroke:#000;stroke-width:.125;stroke-linejoin:miter;stroke-miterlimit:4;stroke-dasharray:none;stroke-opacity:1" id="path6899" d="M 239.82819 189.43504 A 2.2717149 2.2717149 0 1 1 235.28476,189.43504 A 2.2717149 2.2717149 0 1 1 239.82819 189.43504 z" transform="matrix(-1.000000,0.000000,0.000000,-1.000000,258.8907,747.1836)"/><path style="opacity:1;fill:#0ff;fill-opacity:1;fill-rule:evenodd;stroke:#000;stroke-width:.125;stroke-linejoin:miter;stroke-miterlimit:4;stroke-dasharray:none;stroke-opacity:1" id="path6901" d="M 239.82819 189.43504 A 2.2717149 2.2717149 0 1 1 235.28476,189.43504 A 2.2717149 2.2717149 0 1 1 239.82819 189.43504 z" transform="matrix(-1.000000,0.000000,0.000000,-1.000000,258.8907,733.5153)"/><path style="opacity:1;fill:#00f;fill-opacity:1;fill-rule:evenodd;stroke:#000;stroke-width:.125;stroke-linejoin:miter;stroke-miterlimit:4;stroke-dasharray:none;stroke-opacity:1" id="path6903" d="M 239.82819 189.43504 A 2.2717149 2.2717149 0 1 1 235.28476,189.43504 A 2.2717149 2.2717149 0 1 1 239.82819 189.43504 z" transform="matrix(-1.000000,0.000000,0.000000,-1.000000,272.5591,733.5153)"/><path style="opacity:1;fill:#ff0;fill-opacity:1;fill-rule:evenodd;stroke:#000;stroke-width:.125;stroke-linejoin:miter;stroke-miterlimit:4;stroke-dasharray:none;stroke-opacity:1" id="path6905" d="M 239.82819 189.43504 A 2.2717149 2.2717149 0 1 1 235.28476,189.43504 A 2.2717149 2.2717149 0 1 1 239.82819 189.43504 z" transform="matrix(-1.000000,0.000000,0.000000,-1.000000,286.2275,733.5153)"/><path id="path6931" d="M 35.005290,557.75123 L 148.46835,444.19631" style="fill:none;fill-opacity:.75;fill-rule:evenodd;stroke:#000;stroke-width:1px;stroke-linecap:butt;stroke-linejoin:miter;stroke-opacity:1"/></g><g id="g7091"><path id="path6935" d="M 143.36688,574.86732 L 185.00000,533.20050 L 241.50000,533.20050" style="fill:none;fill-opacity:.75;fill-rule:evenodd;stroke:#000;stroke-width:1.0000011px;stroke-linecap:butt;stroke-linejoin:miter;stroke-opacity:1"/><g id="g7081"><path id="path6973" d="M 239.82819 189.43504 A 2.2717149 2.2717149 0 1 1 235.28476,189.43504 A 2.2717149 2.2717149 0 1 1 239.82819 189.43504 z" transform="matrix(-1.000000,0.000000,0.000000,-1.000000,436.0591,722.7997)" style="opacity:1;fill:#ff0;fill-opacity:1;fill-rule:evenodd;stroke:#000;stroke-width:.125;stroke-linejoin:miter;stroke-miterlimit:4;stroke-dasharray:none;stroke-opacity:1"/><path id="path6975" d="M 239.82819 189.43504 A 2.2717149 2.2717149 0 1 1 235.28476,189.43504 A 2.2717149 2.2717149 0 1 1 239.82819 189.43504 z" transform="matrix(-1.000000,0.000000,0.000000,-1.000000,436.0591,736.4681)" style="opacity:1;fill:#00f;fill-opacity:1;fill-rule:evenodd;stroke:#000;stroke-width:.125;stroke-linejoin:miter;stroke-miterlimit:4;stroke-dasharray:none;stroke-opacity:1"/><path id="path6977" d="M 239.82819 189.43504 A 2.2717149 2.2717149 0 1 1 235.28476,189.43504 A 2.2717149 2.2717149 0 1 1 239.82819 189.43504 z" transform="matrix(-1.000000,0.000000,0.000000,-1.000000,422.3907,736.4681)" style="opacity:1;fill:#00f;fill-opacity:1;fill-rule:evenodd;stroke:#000;stroke-width:.125;stroke-linejoin:miter;stroke-miterlimit:4;stroke-dasharray:none;stroke-opacity:1"/><path id="path6979" d="M 239.82819 189.43504 A 2.2717149 2.2717149 0 1 1 235.28476,189.43504 A 2.2717149 2.2717149 0 1 1 239.82819 189.43504 z" transform="matrix(-1.000000,0.000000,0.000000,-1.000000,408.7223,736.4681)" style="opacity:1;fill:#ff0;fill-opacity:1;fill-rule:evenodd;stroke:#000;stroke-width:.125;stroke-linejoin:miter;stroke-miterlimit:4;stroke-dasharray:none;stroke-opacity:1"/><path id="path6981" d="M 239.82819 189.43504 A 2.2717149 2.2717149 0 1 1 235.28476,189.43504 A 2.2717149 2.2717149 0 1 1 239.82819 189.43504 z" transform="matrix(-1.000000,0.000000,0.000000,-1.000000,408.7223,722.7997)" style="opacity:1;fill:#ff0;fill-opacity:1;fill-rule:evenodd;stroke:#000;stroke-width:.125;stroke-linejoin:miter;stroke-miterlimit:4;stroke-dasharray:none;stroke-opacity:1"/><path id="path6983" d="M 239.82819 189.43504 A 2.2717149 2.2717149 0 1 1 235.28476,189.43504 A 2.2717149 2.2717149 0 1 1 239.82819 189.43504 z" transform="matrix(-1.000000,0.000000,0.000000,-1.000000,408.7223,709.1314)" style="opacity:1;fill:#00f;fill-opacity:1;fill-rule:evenodd;stroke:#000;stroke-width:.125;stroke-linejoin:miter;stroke-miterlimit:4;stroke-dasharray:none;stroke-opacity:1"/><path id="path6985" d="M 239.82819 189.43504 A 2.2717149 2.2717149 0 1 1 235.28476,189.43504 A 2.2717149 2.2717149 0 1 1 239.82819 189.43504 z" transform="matrix(-1.000000,0.000000,0.000000,-1.000000,422.3907,709.1314)" style="opacity:1;fill:#00f;fill-opacity:1;fill-rule:evenodd;stroke:#000;stroke-width:.125;stroke-linejoin:miter;stroke-miterlimit:4;stroke-dasharray:none;stroke-opacity:1"/><path id="path6987" d="M 239.82819 189.43504 A 2.2717149 2.2717149 0 1 1 235.28476,189.43504 A 2.2717149 2.2717149 0 1 1 239.82819 189.43504 z" transform="matrix(-1.000000,0.000000,0.000000,-1.000000,436.0591,709.1314)" style="opacity:1;fill:#ff0;fill-opacity:1;fill-rule:evenodd;stroke:#000;stroke-width:.125;stroke-linejoin:miter;stroke-miterlimit:4;stroke-dasharray:none;stroke-opacity:1"/></g></g><path id="path7037" d="M 239.82819 189.43504 A 2.2717149 2.2717149 0 1 1 235.28476,189.43504 A 2.2717149 2.2717149 0 1 1 239.82819 189.43504 z" transform="matrix(-0.707107,0.707107,-0.707107,-0.707107,608.1528,439.3340)" style="opacity:1;fill:#00f;fill-opacity:1;fill-rule:evenodd;stroke:#000;stroke-width:.125;stroke-linejoin:miter;stroke-miterlimit:4;stroke-dasharray:none;stroke-opacity:1"/><path id="path7039" d="M 239.82819 189.43504 A 2.2717149 2.2717149 0 1 1 235.28476,189.43504 A 2.2717149 2.2717149 0 1 1 239.82819 189.43504 z" transform="matrix(-0.707107,0.707107,-0.707107,-0.707107,617.8178,448.9990)" style="opacity:1;fill:#f0f;fill-opacity:1;fill-rule:evenodd;stroke:#000;stroke-width:.125;stroke-linejoin:miter;stroke-miterlimit:4;stroke-dasharray:none;stroke-opacity:1"/><path id="path7041" d="M 239.82819 189.43504 A 2.2717149 2.2717149 0 1 1 235.28476,189.43504 A 2.2717149 2.2717149 0 1 1 239.82819 189.43504 z" transform="matrix(-0.707107,0.707107,-0.707107,-0.707107,608.1528,458.6640)" style="opacity:1;fill:#00f;fill-opacity:1;fill-rule:evenodd;stroke:#000;stroke-width:.125;stroke-linejoin:miter;stroke-miterlimit:4;stroke-dasharray:none;stroke-opacity:1"/><path id="path7043" d="M 239.82819 189.43504 A 2.2717149 2.2717149 0 1 1 235.28476,189.43504 A 2.2717149 2.2717149 0 1 1 239.82819 189.43504 z" transform="matrix(-0.707107,0.707107,-0.707107,-0.707107,598.4878,468.3290)" style="opacity:1;fill:#ff0;fill-opacity:1;fill-rule:evenodd;stroke:#000;stroke-width:.125;stroke-linejoin:miter;stroke-miterlimit:4;stroke-dasharray:none;stroke-opacity:1"/><path id="path7045" d="M 239.82819 189.43504 A 2.2717149 2.2717149 0 1 1 235.28476,189.43504 A 2.2717149 2.2717149 0 1 1 239.82819 189.43504 z" transform="matrix(-0.707107,0.707107,-0.707107,-0.707107,588.8228,458.6640)" style="opacity:1;fill:#00f;fill-opacity:1;fill-rule:evenodd;stroke:#000;stroke-width:.125;stroke-linejoin:miter;stroke-miterlimit:4;stroke-dasharray:none;stroke-opacity:1"/><path id="path7047" d="M 239.82819 189.43504 A 2.2717149 2.2717149 0 1 1 235.28476,189.43504 A 2.2717149 2.2717149 0 1 1 239.82819 189.43504 z" transform="matrix(-0.707107,0.707107,-0.707107,-0.707107,579.1578,448.9991)" style="opacity:1;fill:#f0f;fill-opacity:1;fill-rule:evenodd;stroke:#000;stroke-width:.125;stroke-linejoin:miter;stroke-miterlimit:4;stroke-dasharray:none;stroke-opacity:1"/><path id="path7049" d="M 239.82819 189.43504 A 2.2717149 2.2717149 0 1 1 235.28476,189.43504 A 2.2717149 2.2717149 0 1 1 239.82819 189.43504 z" transform="matrix(-0.707107,0.707107,-0.707107,-0.707107,588.8229,439.3341)" style="opacity:1;fill:#00f;fill-opacity:1;fill-rule:evenodd;stroke:#000;stroke-width:.125;stroke-linejoin:miter;stroke-miterlimit:4;stroke-dasharray:none;stroke-opacity:1"/><path id="path7051" d="M 239.82819 189.43504 A 2.2717149 2.2717149 0 1 1 235.28476,189.43504 A 2.2717149 2.2717149 0 1 1 239.82819 189.43504 z" transform="matrix(-0.707107,0.707107,-0.707107,-0.707107,598.4879,429.6690)" style="opacity:1;fill:#ff0;fill-opacity:1;fill-rule:evenodd;stroke:#000;stroke-width:.125;stroke-linejoin:miter;stroke-miterlimit:4;stroke-dasharray:none;stroke-opacity:1"/><path style="fill:none;fill-opacity:.75;fill-rule:evenodd;stroke:#000;stroke-width:1.0000004px;stroke-linecap:butt;stroke-linejoin:miter;stroke-opacity:1" id="path7053" d="M 296.56288,570.12631 L 296.49793,409.60031"/><path id="path7111" d="M 239.82819 189.43504 A 2.2717149 2.2717149 0 1 1 235.28476,189.43504 A 2.2717149 2.2717149 0 1 1 239.82819 189.43504 z" transform="translate(-214.8907,267.2614)" style="opacity:1;fill:#f0f;fill-opacity:1;fill-rule:evenodd;stroke:#000;stroke-width:.125;stroke-linejoin:miter;stroke-miterlimit:4;stroke-dasharray:none;stroke-opacity:1"/><text xml:space="preserve" style="font-size:12px;font-style:normal;font-weight:400;line-height:125%;fill:#000;fill-opacity:1;stroke:none;stroke-width:1px;stroke-linecap:butt;stroke-linejoin:miter;stroke-opacity:1;font-family:Bitstream Vera Sans" id="text7113" x="28.766" y="458.933"><tspan id="tspan7115" x="28.766" y="458.933" style="font-size:6px;font-style:normal;font-variant:normal;font-weight:400;font-stretch:normal;text-align:start;line-height:125%;writing-mode:lr-tb;text-anchor:start;font-family:Bitstream Vera Sans">preferred, allowed and</tspan><tspan x="28.766" y="466.433" style="font-size:6px;font-style:normal;font-variant:normal;font-weight:400;font-stretch:normal;text-align:start;line-height:125%;writing-mode:lr-tb;text-anchor:start;font-family:Bitstream Vera Sans" id="tspan7117">can be ignored to create</tspan><tspan x="28.766" y="473.933" style="font-size:6px;font-style:normal;font-variant:normal;font-weight:400;font-stretch:normal;text-align:start;line-height:125%;writing-mode:lr-tb;text-anchor:start;font-family:Bitstream Vera Sans" id="tspan7119">long wires (which span</tspan><tspan x="28.766" y="481.433" style="font-size:6px;font-style:normal;font-variant:normal;font-weight:400;font-stretch:normal;text-align:start;line-height:125%;writing-mode:lr-tb;text-anchor:start;font-family:Bitstream Vera Sans" id="tspan7121">2 tiles)</tspan></text></g></svg>